<?xml version="1.0" encoding="iso-8859-1"?>
<!-- Generator: Adobe Illustrator 18.1.1, SVG Export Plug-In . SVG Version: 6.00 Build 0)  -->
<svg version="1.1" id="Capa_1" xmlns="http://www.w3.org/2000/svg" xmlns:xlink="http://www.w3.org/1999/xlink" x="0px" y="0px"
	 viewBox="0 0 208.35 208.35" style="enable-background:new 0 0 208.35 208.35;" xml:space="preserve">
<g>
	<g>
		<path style="fill:#010002;" d="M122.436,73.882h-3.103l-6.059,6.063H95.086l-6.059-6.063h-3.106v19.208h36.511V73.882H122.436z
			 M119.426,78.044V90.08H88.938V78.055l4.903,4.899h20.679L119.426,78.044z"/>
		<path style="fill:#010002;" d="M166.513,24.404l0.437-0.437L149.542,6.556l-43.787,43.773l-0.433,0.444l17.408,17.411
			L166.513,24.404z M122.733,63.929L109.577,50.77l39.965-39.958l13.156,13.156L122.733,63.929z"/>
		<path style="fill:#010002;" d="M104.162,102.001c-26.559,0-48.161,21.606-48.161,48.168c0,26.555,21.602,48.164,48.161,48.164
			c26.569,0,48.178-21.609,48.178-48.164C152.341,123.606,130.732,102.001,104.162,102.001z M104.162,195.323
			c-24.898,0-45.14-20.256-45.14-45.151c0-24.898,20.242-45.158,45.14-45.158c24.902,0,45.158,20.26,45.158,45.158
			C149.32,175.067,129.064,195.323,104.162,195.323z"/>
		<path style="fill:#010002;" d="M173.073,24.404l0.437-0.437L149.986,0.437L149.542,0L104.17,45.366L59.262,0.437L58.818,0
			L35.273,23.524L34.84,23.96l44.886,44.882v28.534c-20.507,9.513-33.741,30.188-33.741,52.792
			c0,32.077,26.097,58.181,58.174,58.181c32.095,0,58.199-26.104,58.199-58.181c0-22.604-13.231-43.286-33.752-52.792V68.854
			L173.073,24.404z M104.162,205.344c-30.417,0-55.164-24.751-55.164-55.172c0-22.396,13.399-42.413,34.142-50.999l6.993-2.902
			h-7.394V70.697h3.103L39.095,23.96L58.818,4.252l44.904,44.932l0.444,0.444l45.376-45.373l19.716,19.712l-46.743,46.729h3.01
			l0.075,25.574h-7.383l6.989,2.902c20.75,8.579,34.157,28.599,34.157,50.999C159.359,180.592,134.597,205.344,104.162,205.344z"/>
		<polygon style="fill:#010002;" points="92.141,129.333 94.099,136.984 101.528,132.969 101.528,171.348 110.418,171.348 
			110.418,123.345 103.5,123.345 		"/>
	</g>
</g>
<g>
</g>
<g>
</g>
<g>
</g>
<g>
</g>
<g>
</g>
<g>
</g>
<g>
</g>
<g>
</g>
<g>
</g>
<g>
</g>
<g>
</g>
<g>
</g>
<g>
</g>
<g>
</g>
<g>
</g>
</svg>
